<svg width="24" height="24" viewBox="0 0 24 24" fill="none" xmlns="http://www.w3.org/2000/svg">
<path d="M2 21V9L10 3L15.375 7.05C14.9583 7.1 14.5667 7.19583 14.2 7.3375C13.8333 7.47917 13.4833 7.66667 13.15 7.9L10 5.5L4 10V19H8V21H2ZM10 21V19.1C10 18.75 10.0875 18.4208 10.2625 18.1125C10.4375 17.8042 10.675 17.5583 10.975 17.375C11.7417 16.925 12.5458 16.5833 13.3875 16.35C14.2292 16.1167 15.1 16 16 16C16.9 16 17.7708 16.1167 18.6125 16.35C19.4542 16.5833 20.2583 16.925 21.025 17.375C21.325 17.5583 21.5625 17.8042 21.7375 18.1125C21.9125 18.4208 22 18.75 22 19.1V21H10ZM12.15 19H19.85C19.2667 18.6667 18.65 18.4167 18 18.25C17.35 18.0833 16.6833 18 16 18C15.3167 18 14.65 18.0833 14 18.25C13.35 18.4167 12.7333 18.6667 12.15 19ZM16 15C15.1667 15 14.4583 14.7083 13.875 14.125C13.2917 13.5417 13 12.8333 13 12C13 11.1667 13.2917 10.4583 13.875 9.875C14.4583 9.29167 15.1667 9 16 9C16.8333 9 17.5417 9.29167 18.125 9.875C18.7083 10.4583 19 11.1667 19 12C19 12.8333 18.7083 13.5417 18.125 14.125C17.5417 14.7083 16.8333 15 16 15ZM16 13C16.2833 13 16.5208 12.9042 16.7125 12.7125C16.9042 12.5208 17 12.2833 17 12C17 11.7167 16.9042 11.4792 16.7125 11.2875C16.5208 11.0958 16.2833 11 16 11C15.7167 11 15.4792 11.0958 15.2875 11.2875C15.0958 11.4792 15 11.7167 15 12C15 12.2833 15.0958 12.5208 15.2875 12.7125C15.4792 12.9042 15.7167 13 16 13Z" fill="#5457C9"/>
</svg>
