<svg width="24" height="24" viewBox="0 0 24 24" fill="none" xmlns="http://www.w3.org/2000/svg">
<path d="M4 20C3.45 20 2.97917 19.8042 2.5875 19.4125C2.19583 19.0208 2 18.55 2 18V6C2 5.45 2.19583 4.97917 2.5875 4.5875C2.97917 4.19583 3.45 4 4 4H20C20.55 4 21.0208 4.19583 21.4125 4.5875C21.8042 4.97917 22 5.45 22 6V18C22 18.55 21.8042 19.0208 21.4125 19.4125C21.0208 19.8042 20.55 20 20 20H4ZM4 18H11V6H4V18ZM13 18H20V6H13V18ZM5 16H10V14H5V16ZM5 13H10V11H5V13ZM5 10H10V8H5V10ZM14 16H19V14H14V16ZM14 13H19V11H14V13ZM14 10H19V8H14V10Z" fill="#474D68"/>
</svg>
